<mxfile host="65bd71144e">
    <diagram id="dB_4mCq866-4aoqafa0k" name="Page-1">
        <mxGraphModel dx="1910" dy="2305" grid="1" gridSize="10" guides="1" tooltips="1" connect="1" arrows="1" fold="1" page="1" pageScale="1" pageWidth="1169" pageHeight="827" math="0" shadow="0">
            <root>
                <mxCell id="0"/>
                <mxCell id="1" parent="0"/>
                <mxCell id="4" value="" style="rounded=0;whiteSpace=wrap;html=1;fillColor=#647687;strokeColor=#314354;fontColor=#ffffff;" parent="1" vertex="1">
                    <mxGeometry x="40" width="1120" height="780" as="geometry"/>
                </mxCell>
                <mxCell id="3" value="" style="rounded=0;whiteSpace=wrap;html=1;dashed=1;fillColor=#cce5ff;strokeColor=#36393d;" parent="1" vertex="1">
                    <mxGeometry x="40" y="40" width="880" height="720" as="geometry"/>
                </mxCell>
                <mxCell id="2" value="" style="rounded=0;whiteSpace=wrap;html=1;strokeWidth=2;" parent="1" vertex="1">
                    <mxGeometry x="160" y="160" width="640" height="480" as="geometry"/>
                </mxCell>
                <mxCell id="7" value="" style="endArrow=open;startArrow=open;html=1;exitX=0;exitY=0.25;exitDx=0;exitDy=0;entryX=1;entryY=0.25;entryDx=0;entryDy=0;endFill=0;startFill=0;endSize=12;startSize=12;strokeWidth=1;" parent="1" source="2" target="2" edge="1">
                    <mxGeometry width="50" height="50" relative="1" as="geometry">
                        <mxPoint x="290" y="410" as="sourcePoint"/>
                        <mxPoint x="340" y="360" as="targetPoint"/>
                    </mxGeometry>
                </mxCell>
                <mxCell id="8" value="Display width: 256 pixels (128 T-states)" style="text;html=1;strokeColor=none;fillColor=none;align=center;verticalAlign=middle;whiteSpace=wrap;rounded=0;dashed=1;dashPattern=1 1;fontSize=14;" parent="1" vertex="1">
                    <mxGeometry x="160" y="255" width="640" height="20" as="geometry"/>
                </mxCell>
                <mxCell id="9" value="" style="endArrow=open;startArrow=open;html=1;fontSize=14;startSize=12;endSize=12;strokeWidth=1;entryX=0.25;entryY=0;entryDx=0;entryDy=0;exitX=0.25;exitY=1;exitDx=0;exitDy=0;endFill=0;startFill=0;" parent="1" source="2" target="2" edge="1">
                    <mxGeometry width="50" height="50" relative="1" as="geometry">
                        <mxPoint x="220" y="480" as="sourcePoint"/>
                        <mxPoint x="270" y="430" as="targetPoint"/>
                    </mxGeometry>
                </mxCell>
                <mxCell id="10" value="Display height: 192 lines" style="text;html=1;strokeColor=none;fillColor=none;align=left;verticalAlign=middle;whiteSpace=wrap;rounded=0;dashed=1;dashPattern=1 1;fontSize=14;spacingLeft=8;" parent="1" vertex="1">
                    <mxGeometry x="320" y="404" width="290" height="20" as="geometry"/>
                </mxCell>
                <mxCell id="11" value="" style="endArrow=open;startArrow=open;html=1;fontSize=14;startSize=12;endSize=12;strokeWidth=1;entryX=0.318;entryY=-0.001;entryDx=0;entryDy=0;entryPerimeter=0;endFill=0;startFill=0;" parent="1" target="3" edge="1">
                    <mxGeometry width="50" height="50" relative="1" as="geometry">
                        <mxPoint x="320" y="160" as="sourcePoint"/>
                        <mxPoint x="360" y="60" as="targetPoint"/>
                    </mxGeometry>
                </mxCell>
                <mxCell id="12" value="Visible border lines: 48 lines" style="text;html=1;strokeColor=none;fillColor=none;align=left;verticalAlign=middle;whiteSpace=wrap;rounded=0;dashed=1;dashPattern=1 1;fontSize=14;spacingLeft=8;" parent="1" vertex="1">
                    <mxGeometry x="320" y="90" width="290" height="20" as="geometry"/>
                </mxCell>
                <mxCell id="13" value="" style="endArrow=open;startArrow=open;html=1;fontSize=14;startSize=12;endSize=12;strokeWidth=1;entryX=0.318;entryY=-0.001;entryDx=0;entryDy=0;entryPerimeter=0;endFill=0;startFill=0;" parent="1" edge="1">
                    <mxGeometry width="50" height="50" relative="1" as="geometry">
                        <mxPoint x="320.16" y="760.72" as="sourcePoint"/>
                        <mxPoint x="319.99999999999994" y="640" as="targetPoint"/>
                    </mxGeometry>
                </mxCell>
                <mxCell id="14" value="Visible border lines: 48 lines" style="text;html=1;strokeColor=none;fillColor=none;align=left;verticalAlign=middle;whiteSpace=wrap;rounded=0;dashed=1;dashPattern=1 1;fontSize=14;spacingLeft=8;" parent="1" vertex="1">
                    <mxGeometry x="320" y="690" width="290" height="20" as="geometry"/>
                </mxCell>
                <mxCell id="16" value="" style="endArrow=open;startArrow=open;html=1;fontSize=14;startSize=12;endSize=12;strokeWidth=1;entryX=0;entryY=0.25;entryDx=0;entryDy=0;exitX=-0.001;exitY=0.333;exitDx=0;exitDy=0;exitPerimeter=0;endFill=0;startFill=0;" parent="1" source="3" target="2" edge="1">
                    <mxGeometry width="50" height="50" relative="1" as="geometry">
                        <mxPoint x="80" y="370" as="sourcePoint"/>
                        <mxPoint x="130" y="320" as="targetPoint"/>
                    </mxGeometry>
                </mxCell>
                <mxCell id="17" value="Left border&lt;br&gt;48 pixels&lt;br&gt;(24 T-states)" style="text;html=1;strokeColor=none;fillColor=none;align=center;verticalAlign=middle;whiteSpace=wrap;rounded=0;dashed=1;dashPattern=1 1;fontSize=14;" parent="1" vertex="1">
                    <mxGeometry x="40" y="210" width="120" height="65" as="geometry"/>
                </mxCell>
                <mxCell id="18" value="Right border&lt;br&gt;48 pixels&lt;br&gt;(24 T-states)" style="text;html=1;strokeColor=none;fillColor=none;align=center;verticalAlign=middle;whiteSpace=wrap;rounded=0;dashed=1;dashPattern=1 1;fontSize=14;" parent="1" vertex="1">
                    <mxGeometry x="800" y="210" width="120" height="65" as="geometry"/>
                </mxCell>
                <mxCell id="19" value="" style="endArrow=open;startArrow=open;html=1;fontSize=14;startSize=12;endSize=12;strokeWidth=1;exitX=-0.001;exitY=0.333;exitDx=0;exitDy=0;exitPerimeter=0;endFill=0;startFill=0;" parent="1" edge="1">
                    <mxGeometry width="50" height="50" relative="1" as="geometry">
                        <mxPoint x="799.1199999999999" y="280" as="sourcePoint"/>
                        <mxPoint x="920" y="280" as="targetPoint"/>
                    </mxGeometry>
                </mxCell>
                <mxCell id="20" value="" style="endArrow=open;startArrow=open;html=1;fontSize=14;startSize=4;endSize=4;strokeWidth=1;exitX=0.25;exitY=1;exitDx=0;exitDy=0;endFill=0;startFill=0;" parent="1" source="4" edge="1">
                    <mxGeometry width="50" height="50" relative="1" as="geometry">
                        <mxPoint x="240" y="830" as="sourcePoint"/>
                        <mxPoint x="320" y="761" as="targetPoint"/>
                    </mxGeometry>
                </mxCell>
                <mxCell id="21" value="Vertical sync lines: 8" style="text;html=1;strokeColor=none;fillColor=none;align=left;verticalAlign=middle;whiteSpace=wrap;rounded=0;dashed=1;dashPattern=1 1;fontSize=14;spacingLeft=8;" parent="1" vertex="1">
                    <mxGeometry x="320" y="760" width="290" height="20" as="geometry"/>
                </mxCell>
                <mxCell id="22" value="" style="endArrow=open;startArrow=open;html=1;fontSize=14;startSize=12;endSize=12;strokeWidth=1;exitX=-0.001;exitY=0.333;exitDx=0;exitDy=0;exitPerimeter=0;endFill=0;startFill=0;" parent="1" edge="1">
                    <mxGeometry width="50" height="50" relative="1" as="geometry">
                        <mxPoint x="919.9999999999999" y="280" as="sourcePoint"/>
                        <mxPoint x="1161" y="280" as="targetPoint"/>
                    </mxGeometry>
                </mxCell>
                <mxCell id="24" value="Non-visible + horizontal sync&lt;br&gt;(48 T-states)" style="text;html=1;strokeColor=none;fillColor=none;align=center;verticalAlign=middle;whiteSpace=wrap;rounded=0;dashed=1;dashPattern=1 1;fontSize=14;" parent="1" vertex="1">
                    <mxGeometry x="920" y="210" width="240" height="65" as="geometry"/>
                </mxCell>
                <mxCell id="25" value="" style="endArrow=open;startArrow=open;html=1;startSize=12;endSize=12;entryX=0.25;entryY=0;entryDx=0;entryDy=0;endFill=0;startFill=0;" edge="1" parent="1" target="4">
                    <mxGeometry width="50" height="50" relative="1" as="geometry">
                        <mxPoint x="320" y="40" as="sourcePoint"/>
                        <mxPoint x="410" y="-40" as="targetPoint"/>
                    </mxGeometry>
                </mxCell>
                <mxCell id="26" value="Non-visible lines: 16" style="text;html=1;strokeColor=none;fillColor=none;align=left;verticalAlign=middle;whiteSpace=wrap;rounded=0;dashed=1;dashPattern=1 1;fontSize=14;spacingLeft=8;" vertex="1" parent="1">
                    <mxGeometry x="320" y="10" width="290" height="20" as="geometry"/>
                </mxCell>
            </root>
        </mxGraphModel>
    </diagram>
</mxfile>